<mxfile host="app.diagrams.net" modified="2023-06-07T09:58:30.678Z" agent="Mozilla/5.0 (Windows NT 10.0; Win64; x64) AppleWebKit/537.36 (KHTML, like Gecko) Chrome/114.0.0.0 Safari/537.36" etag="Dzt5ZrU1V-oW-1rUkzb_" version="21.3.6" type="github">
  <diagram name="Page-1" id="LZj3elPDnazI44isiFJa">
    <mxGraphModel dx="1034" dy="513" grid="1" gridSize="10" guides="1" tooltips="1" connect="1" arrows="1" fold="1" page="1" pageScale="1" pageWidth="827" pageHeight="1169" math="0" shadow="0">
      <root>
        <mxCell id="0" />
        <mxCell id="1" parent="0" />
        <mxCell id="1sMSkKS3lMnpfRr_r5zH-16" value="" style="edgeStyle=orthogonalEdgeStyle;rounded=0;orthogonalLoop=1;jettySize=auto;html=1;" edge="1" parent="1" source="1sMSkKS3lMnpfRr_r5zH-1" target="1sMSkKS3lMnpfRr_r5zH-15">
          <mxGeometry relative="1" as="geometry" />
        </mxCell>
        <mxCell id="1sMSkKS3lMnpfRr_r5zH-1" value="START" style="ellipse;whiteSpace=wrap;html=1;" vertex="1" parent="1">
          <mxGeometry x="354" y="40" width="120" height="80" as="geometry" />
        </mxCell>
        <mxCell id="1sMSkKS3lMnpfRr_r5zH-18" value="" style="edgeStyle=orthogonalEdgeStyle;rounded=0;orthogonalLoop=1;jettySize=auto;html=1;entryX=0.5;entryY=0;entryDx=0;entryDy=0;" edge="1" parent="1" source="1sMSkKS3lMnpfRr_r5zH-15" target="1sMSkKS3lMnpfRr_r5zH-20">
          <mxGeometry relative="1" as="geometry">
            <mxPoint x="414" y="340" as="targetPoint" />
          </mxGeometry>
        </mxCell>
        <mxCell id="1sMSkKS3lMnpfRr_r5zH-15" value="number = 10" style="whiteSpace=wrap;html=1;" vertex="1" parent="1">
          <mxGeometry x="354" y="210" width="120" height="60" as="geometry" />
        </mxCell>
        <mxCell id="1sMSkKS3lMnpfRr_r5zH-23" value="" style="edgeStyle=orthogonalEdgeStyle;rounded=0;orthogonalLoop=1;jettySize=auto;html=1;" edge="1" parent="1" source="1sMSkKS3lMnpfRr_r5zH-20" target="1sMSkKS3lMnpfRr_r5zH-22">
          <mxGeometry relative="1" as="geometry" />
        </mxCell>
        <mxCell id="1sMSkKS3lMnpfRr_r5zH-20" value="number = number + 2" style="whiteSpace=wrap;html=1;" vertex="1" parent="1">
          <mxGeometry x="354" y="338" width="120" height="60" as="geometry" />
        </mxCell>
        <mxCell id="1sMSkKS3lMnpfRr_r5zH-25" style="edgeStyle=orthogonalEdgeStyle;rounded=0;orthogonalLoop=1;jettySize=auto;html=1;entryX=0.5;entryY=0;entryDx=0;entryDy=0;" edge="1" parent="1" source="1sMSkKS3lMnpfRr_r5zH-22" target="1sMSkKS3lMnpfRr_r5zH-24">
          <mxGeometry relative="1" as="geometry" />
        </mxCell>
        <mxCell id="1sMSkKS3lMnpfRr_r5zH-22" value="Display number" style="shape=parallelogram;perimeter=parallelogramPerimeter;whiteSpace=wrap;html=1;fixedSize=1;" vertex="1" parent="1">
          <mxGeometry x="354" y="478" width="120" height="60" as="geometry" />
        </mxCell>
        <mxCell id="1sMSkKS3lMnpfRr_r5zH-26" style="edgeStyle=orthogonalEdgeStyle;rounded=0;orthogonalLoop=1;jettySize=auto;html=1;" edge="1" parent="1" source="1sMSkKS3lMnpfRr_r5zH-24">
          <mxGeometry relative="1" as="geometry">
            <mxPoint x="600" y="290" as="targetPoint" />
          </mxGeometry>
        </mxCell>
        <mxCell id="1sMSkKS3lMnpfRr_r5zH-29" value="" style="edgeStyle=orthogonalEdgeStyle;rounded=0;orthogonalLoop=1;jettySize=auto;html=1;" edge="1" parent="1" source="1sMSkKS3lMnpfRr_r5zH-24" target="1sMSkKS3lMnpfRr_r5zH-28">
          <mxGeometry relative="1" as="geometry" />
        </mxCell>
        <mxCell id="1sMSkKS3lMnpfRr_r5zH-24" value="number &amp;lt; 30?" style="rhombus;whiteSpace=wrap;html=1;" vertex="1" parent="1">
          <mxGeometry x="351" y="673" width="126" height="110" as="geometry" />
        </mxCell>
        <mxCell id="1sMSkKS3lMnpfRr_r5zH-27" value="" style="endArrow=classic;html=1;rounded=0;" edge="1" parent="1">
          <mxGeometry width="50" height="50" relative="1" as="geometry">
            <mxPoint x="600" y="300" as="sourcePoint" />
            <mxPoint x="420" y="300" as="targetPoint" />
          </mxGeometry>
        </mxCell>
        <mxCell id="1sMSkKS3lMnpfRr_r5zH-28" value="STOP" style="ellipse;whiteSpace=wrap;html=1;" vertex="1" parent="1">
          <mxGeometry x="374" y="900" width="80" height="58" as="geometry" />
        </mxCell>
      </root>
    </mxGraphModel>
  </diagram>
</mxfile>
